<svg xmlns="http://www.w3.org/2000/svg" viewBox="0 0 128 128">
  <!-- Background circle -->
  <circle cx="64" cy="64" r="64" fill="#2a2a2a"/>
  
  <!-- Ethereum logo -->
  <path d="M63.99 23.98c-22.05 0-39.98 17.93-39.98 39.98s17.93 39.98 39.98 39.98 39.98-17.93 39.98-39.98S86.04 23.98 63.99 23.98zm0 75.96c-20.07 0-35.98-15.91-35.98-35.98S43.92 27.98 63.99 27.98s35.98 15.91 35.98 35.98-15.91 35.98-35.98 35.98z" fill="#007ACC"/>
  
  <!-- Triangle shape representing Ethereum -->
  <path d="M63.99 35.98c-.71 0-1.3.59-1.3 1.3v35.4h-10.4c-.71 0-1.3.59-1.3 1.3s.59 1.3 1.3 1.3h22.6c.71 0 1.3-.59 1.3-1.3s-.59-1.3-1.3-1.3h-10.4v-35.4c0-.71-.59-1.3-1.3-1.3z" fill="#007ACC"/>
  
  <!-- Accent detail -->
  <circle cx="63.99" cy="63.98" r="8" fill="#ffffff" opacity="0.7"/>
</svg>